<svg width="1024" height="1024" viewBox="0 0 1024 1024" fill="none" xmlns="http://www.w3.org/2000/svg">
<path d="M636.204 838.319C631.032 838.319 625.776 837.33 620.689 835.225L361.662 728.686C356.462 726.546 352.325 722.428 350.162 717.239C347.998 712.049 347.985 706.212 350.125 701.013C352.264 695.813 356.382 691.676 361.572 689.513C366.762 687.349 372.598 687.336 377.798 689.476L635.087 795.322L951.538 186.257L56.9524 557.489L219.841 624.521C222.413 625.58 224.752 627.136 226.724 629.1C228.695 631.063 230.261 633.396 231.331 635.964C232.401 638.532 232.954 641.286 232.96 644.069C232.966 646.851 232.423 649.607 231.364 652.18C230.304 654.753 228.748 657.092 226.785 659.063C224.821 661.035 222.489 662.6 219.921 663.67C217.352 664.74 214.598 665.293 211.816 665.299C209.033 665.305 206.277 664.762 203.704 663.703L36.2522 594.792C26.3662 590.709 18.5021 582.873 14.3835 573.002C10.265 563.13 10.2279 552.029 14.2804 542.13C16.2828 537.211 19.2444 532.74 22.9924 528.978C26.7404 525.215 31.1999 522.236 36.1109 520.215L940.432 144.941C945.326 142.893 950.577 141.837 955.882 141.835C961.187 141.832 966.439 142.883 971.334 144.927C976.236 146.944 980.69 149.912 984.439 153.659C988.188 157.405 991.159 161.857 993.179 166.758C995.444 172.197 996.486 178.068 996.232 183.955C995.978 189.841 994.434 195.6 991.709 200.825L671.811 816.503C668.466 823.07 663.369 828.584 657.085 832.434C650.801 836.285 643.574 838.321 636.204 838.319Z" fill="#8D7DD2"/>
<path d="M300.494 840.735C291.128 840.724 282.15 836.999 275.528 830.377C268.906 823.754 265.18 814.776 265.169 805.411V684.53L951.666 156.372C956.132 153.091 961.705 151.688 967.193 152.464C972.681 153.24 977.647 156.133 981.028 160.525C984.409 164.916 985.937 170.457 985.285 175.96C984.632 181.464 981.852 186.494 977.537 189.973L307.573 705.4V789.486L345.483 755.151C349.646 751.377 355.138 749.412 360.751 749.688C366.363 749.963 371.636 752.457 375.41 756.62C379.184 760.784 381.149 766.276 380.873 771.888C380.598 777.501 378.104 782.774 373.94 786.547L324.218 831.593C317.719 837.481 309.262 840.739 300.494 840.735Z" fill="#8D7DD2"/>
</svg>
